<svg width="427" height="404" viewBox="0 0 427 404" fill="none" xmlns="http://www.w3.org/2000/svg">
<path d="M89.4268 17.5264C132.938 18.1238 198.171 19.4765 252.853 20.6875C280.602 21.3021 305.633 21.8802 323.727 22.3047C332.773 22.5169 340.086 22.6908 345.137 22.8115C347.662 22.8719 349.622 22.9192 350.95 22.9512C351.397 22.9619 351.772 22.9703 352.073 22.9775C352.082 23.0967 352.093 23.227 352.104 23.3682C352.165 24.1982 352.248 25.4015 352.338 26.8887C352.517 29.8636 352.719 33.9748 352.812 38.5205C352.993 47.319 352.76 57.6215 351.21 64.4932L87.1221 62.5156L90.7686 58.1406L90.9307 57.9453L90.9805 57.6963L91.9424 52.8828L97.3398 44.543L97.5244 44.2568L96.9961 37.917L96.9766 37.6758L96.8477 37.4697L92.041 29.7803L92.9902 23.1416L93.0449 22.7529L92.8223 22.4307L89.4268 17.5264Z" fill="#FDB813" stroke="#FDB813" stroke-width="2"/>
<path d="M141.5 194.5L140.5 143.5H152.5L183 143L211 140.5L239.5 147.5L277 146L312 147.5L301.5 212L303.5 235L297 255.5L297.5 277.5L294 306L288 343L253.5 341L242.5 347L144 340L145 288L137.5 266L142.5 240.5L139.5 209L141.5 194.5Z" stroke="white" stroke-width="5"/>
<path d="M171.72 260.977C169.278 264.845 167.813 276.019 170.255 280.747C172.697 284.614 185.686 287.151 190.769 285.474C194.676 284.185 212.432 277.905 218.12 278.168C227.4 278.598 240.099 282.036 246.449 282.895C252.798 283.755 265.497 280.747 266.474 279.028C267.65 276.957 269.405 267.424 268.916 263.126C268.673 260.988 266.962 254.961 265.009 250.663C261.394 242.713 254.705 228.141 240.588 220.58C229.354 214.563 214.213 217.571 205.91 219.29C193.43 221.874 182.954 238.2 181.977 239.489C181 240.779 175.139 250.663 171.72 260.977Z" stroke="white" stroke-width="3"/>
<path d="M192.5 227.5L192 246L214 246.5L213.5 234.5L216 217.5" stroke="white" stroke-width="3"/>
<path d="M230 216V225.5L228.5 233.5L228 242.5H250L251 228.5" stroke="white" stroke-width="3"/>
<path d="M143.5 300.5L224 302.5L238.5 304L260 302.5L295 304" stroke="white" stroke-width="3"/>
<path d="M209.5 302L215 312M215 312L207.5 326.5L215 333.5L219.5 339L230.5 325L227.5 320L222.5 312M215 312H222.5M222.5 312L227 303" stroke="white" stroke-width="3"/>
<path d="M180.5 342L177.5 357.5L178.5 372.5L177.5 400.5L158 401.5" stroke="white" stroke-width="5"/>
<path d="M252 343.5V362L252.5 375.5L250 400L271.5 401" stroke="white" stroke-width="5"/>
<path d="M176.5 158.5C172.5 159 163.5 164 161 166.5C158.5 169.5 152.897 178.817 155.5 185C159.5 194.5 173.47 196.162 178.5 197C184.5 198 194.188 194.07 197.5 192C201.5 189.5 202.5 180 201.5 176.5C200.5 173 198.5 168.5 196.5 166C194.5 163.5 189.5 161.5 187 160.5C184.5 159.5 180.993 157.938 176.5 158.5Z" stroke="white" stroke-width="3"/>
<path d="M174.5 159L173 152.5" stroke="white" stroke-width="3"/>
<path d="M187 160.5V154" stroke="white" stroke-width="3"/>
<path d="M161 166.5L157.5 161" stroke="white" stroke-width="3"/>
<path d="M185.5 177C184.088 176.059 181.333 175.833 180 176C177 176 175.974 179.577 175.5 181C175 182.5 176 186 178 186.5C180 187 182 187 184 186.5C186 186 188.19 183.55 188.5 182C189 179.5 187 178 185.5 177Z" stroke="white" stroke-width="3"/>
<ellipse cx="217.5" cy="156" rx="2.5" ry="2" fill="white"/>
<ellipse cx="282.5" cy="294" rx="1.5" ry="2" fill="white"/>
<circle cx="271" cy="315" r="2" fill="white"/>
<ellipse cx="163.5" cy="312.75" rx="1.5" ry="1.75" fill="white"/>
<circle cx="161.5" cy="324.5" r="1.5" fill="white"/>
<circle cx="216" cy="294" r="1" fill="white"/>
<ellipse cx="151" cy="273.25" rx="1" ry="1.25" fill="white"/>
<ellipse cx="156.4" cy="255.75" rx="1.4" ry="1.75" fill="white"/>
<ellipse cx="155.333" cy="289" rx="1.33333" ry="1" fill="white"/>
<circle cx="209.5" cy="164.5" r="1.5" fill="white"/>
<path d="M223.27 193.167C218.519 192.488 212.41 193.845 210.374 197.918C210.374 197.918 208.338 203.348 213.768 204.027C224.628 205.384 232.094 202.669 232.094 198.597C232.094 196.56 228.811 193.958 223.27 193.167Z" stroke="white" stroke-width="3"/>
<path d="M269.622 176.954C268.206 176.01 263.958 176.01 261.598 176.482C259.71 176.954 256.878 177.898 255.462 181.201C254.533 183.371 254.448 186.434 256.406 189.697C257.822 192.057 263.958 193.473 267.262 193.001C270.566 192.529 271.982 191.113 273.87 187.337C275.286 184.505 272.788 179.064 269.622 176.954Z" stroke="white" stroke-width="3"/>
<path d="M276.5 162C272.9 159.2 259 161 252.5 163C248.5 165 238.5 172.5 236.5 178C232.604 188.715 245 201 259.5 205C273.302 208.808 287.5 196.5 289 193.5C291 189.5 294 184 292.5 177C290.874 169.41 281 165.5 276.5 162Z" stroke="white" stroke-width="3"/>
<path d="M257.5 162L255.5 155" stroke="white" stroke-width="3"/>
<path d="M285.5 168.5L289.5 161" stroke="white" stroke-width="3"/>
<path d="M272.5 161.5L273.5 153.5" stroke="white" stroke-width="3"/>
<path d="M32.5 46.5L33.5 32L86.5 17.5L90.5 23.5V30.5L95 39V44.5L89.5 51.5V56.5L82.5 63.5L32.5 46.5Z" fill="#EFD7BD"/>
<path d="M86.5 17L91 22.5L90 30L95 38.5L95.5 44L89.5 53L89 57.5L84 63" stroke="#907711" stroke-width="2"/>
<path d="M87 16.5L7 39L84.5 63.5C172.333 66.1667 348.5 65.5 351.5 65.5C355 65.5 356 22 351.5 22L87 16.5Z" stroke="#907711" stroke-width="2"/>
<path d="M353.5 39H315" stroke="#907711" stroke-width="2"/>
<path d="M240 26.5L353 28" stroke="#907711" stroke-width="2"/>
<path d="M353.5 54.5L202.5 52.5" stroke="#907711" stroke-width="2"/>
<path d="M260.5 38L92 34.5" stroke="#907711" stroke-width="2"/>
<path d="M90.5 22.5L185.5 25" stroke="#907711" stroke-width="2"/>
<path d="M91.5 50L162.5 51" stroke="#907711" stroke-width="2"/>
<path d="M31 46C37.5 48 37.5 30.5 33.5 31.5L4 39C11.5 41 26.0107 44.4648 31 46Z" fill="white" stroke="white" stroke-width="2"/>
<path d="M418.5 22H388.5C390 25 388.5 60.5 388 66.5L421.5 67.5C422.833 61.6667 425.5 49.6 425.5 48C425.5 46 426 39.5 426 35C426 31.4 421 24.8333 418.5 22Z" fill="#F37679" stroke="#C41230" stroke-width="2"/>
<path d="M384.5 23L360.5 22.5C364.9 24.5 365.5 60.5 358.5 67C365.5 67 378.04 67.0657 382 66.5C385.5 66 388 26.5 384.5 23Z" fill="#939BA1" stroke="white" stroke-width="2"/>
<path d="M367 65.5C370.041 62.4587 373 34.5 369.5 23.5L374 23.5C375.5 23.5 376.5 56 371.5 66C369 66 366 66.5 367 65.5Z" fill="#0483CB"/>
<path d="M368 22.5C375 27 369.5 66 366 67" stroke="white" stroke-width="2"/>
<path d="M373.5 22.5C379.5 27.5 374.5 67 370 67" stroke="white" stroke-width="2"/>
<path d="M381.008 22.4402C381.005 22.4601 381.002 22.4801 381 22.5C380.882 22.4706 380.9 22.4516 381.008 22.4402C381.54 18.4604 385.517 14.5374 389 22C393.5 31.5 392 71 383.5 71C380.338 71 379.5 69 379.5 67.5C379.5 66.7929 380.5 66.5 382.5 66.5C388 53 384 22.5 384 22.5C384 22.5 381.513 22.3869 381.008 22.4402Z" fill="#939BA1"/>
<path d="M381 22.5C381.5 18.5 385.5 14.5 389 22C393.5 31.5 392 71 383.5 71C380.338 71 379.5 69 379.5 67.5C379.5 66.7929 380.5 66.5 382.5 66.5C388 53 384 22.5 384 22.5C384 22.5 380.333 22.3333 381 22.5Z" stroke="white" stroke-width="2"/>
<path d="M361.186 22.6912C357.791 16.1378 351.912 20.205 352.491 20.7022C357.128 23.6857 357.708 61.9744 352.491 66.4497C350.101 68.4999 357.02 71.6239 360.607 64.9579C364.085 58.4936 365.823 31.6418 361.186 22.6912Z" fill="#939BA1" stroke="white" stroke-width="2"/>
<path d="M108 65L104 114L141 187.5" stroke="white" stroke-width="5"/>
<path d="M98.7545 7.35157C95.6252 7.79862 95.4617 12.6204 96.7788 17.8887C98.096 23.1575 105.802 31.0598 107.974 31.06C110.609 31.0603 111.926 27.7675 111.267 22.4989C110.415 15.6763 103.365 6.69301 98.7545 7.35157Z" stroke="white" stroke-width="3"/>
<path d="M109.292 2.08325C105.34 2.74181 105.34 7.57132 105.999 11.3032C107.974 12.6204 111.926 21.8403 111.926 21.8403C111.926 21.8403 114.56 29.0846 117.194 29.0846C120.487 29.0846 121.146 26.4503 121.146 24.4746C121.146 18.511 117.853 9.98607 116.536 7.35179C115.219 4.71752 113.189 1.43364 109.292 2.08325Z" stroke="white" stroke-width="3"/>
<path d="M124.439 3.40042C119.829 0.107574 117.194 6.03471 117.194 7.35185C118.511 11.3033 121.474 15.5719 122.463 24.4746C123.121 30.4018 129.707 27.7675 130.366 23.8161C130.907 20.568 130.549 7.76484 124.439 3.40042Z" stroke="white" stroke-width="3"/>
<path d="M323.326 10.0622C327.498 8.87004 329.882 10.6583 331.671 12.4465C326.306 17.2152 325.844 22.0999 322.729 25.5603C317.365 31.5211 312 32.1172 312 25.5603C312 17.1939 319.153 11.2544 323.326 10.0622Z" stroke="white" stroke-width="3"/>
<path d="M341.804 15.427C343.175 9.94085 335.247 9.46618 331.671 12.4466C329.882 14.4335 323.805 22.5624 323.325 26.1564C322.133 35.0976 334.428 30.8104 335.247 27.9447C336.439 23.7721 341.208 17.8113 341.804 15.427Z" stroke="white" stroke-width="3"/>
<path d="M351.938 17.8113C352.662 11.2946 344.785 12.4466 341.804 16.0231C340.811 17.4139 336.439 24.3682 335.247 29.1369C334.225 33.226 337.035 35.6938 341.208 33.9055C345.381 32.1173 351.341 23.1761 351.938 17.8113Z" stroke="white" stroke-width="3"/>
<path d="M344 66L345.5 88.5L350.5 141L306 190.5" stroke="white" stroke-width="5"/>
</svg>
